<svg xmlns="http://www.w3.org/2000/svg" version="1.2" baseProfile="tiny" x="0" y="0" width="500" height="500" viewBox="0 0 500 600" xml:space="preserve"><path fill-rule="evenodd" fill="#000" d="M101.7 284.6c4.7-10.2-0.8-25.1 2.8-35.8 4.6-2 13.3-1 16.9 0.9 5.6 12.7 1.8 33.7 1.9 49.9 0 8.5 3.4 17-2.8 21.6 -30.1 2.8-28.7-25.9-44.2-37.6 -6.7 6.8-3.5 26.4-4.7 35.8 -4.5 3.4-16.4 2.6-18.8-1.9 -1.1-13.2-1.3-19.4 4.7-27.3 -6.3-10.8-5.4-23.7-4.7-40.5 4-1.2 12.9-2.7 16.9-2.8C82.8 257.1 89.5 273.6 101.7 284.6zM304 248.8c0.6 5-0.7 8.1-2.8 10.4 -5.9 0.2-11.7 0.4-14.1-2.8C283.2 244.4 299.4 243.5 304 248.8zM248.5 271.4c4.4-3.2 15.9-6.4 20.7-0.9 -4.3 23.5 12.1 63.5-13.2 71.5 -16.4-3.7-45.1 7.8-42.4-16 10.6-1.9 42.5 17 36.7-11.3 -8.7-1.2-9.8 4.4-16 4.7 -19 0.8-28.2-37.3-16-48.9C225.7 263.5 240.4 265.3 248.5 271.4zM250.4 286.5c-7.6-18-29.3 2.7-16 17.9C250.1 310 253.5 293.9 250.4 286.5zM441.4 276.1c-7.4 13.7-25.8-8-32 4.7 6.8 11.2 33.9 5.3 36.7 19.8 1.1 5.6-2.5 9.8-4.7 15.1 -14.1 5.8-44.3 12.6-49.9-5.6 11.4-14.1 26.8 11.5 36.7-2.8 -6.8-15.7-38.4-2.9-36.7-25.4C393 262.8 432 259 441.4 276.1zM196.8 317.5c-5.6 3.1-16.2 3.7-19.8-0.9 -8.1 3.4-28.8 11-35.8 0.9 -7.3-10.4 0.1-29.8 15.1-23.5 5.6-7.1 27.9-2 23.5-16 -6.9-7.8-17.2 4.3-22.6 5.6 -21 5.1-18.8-14.7 0-16.9 8.4-1 16.5 1.9 26.4 0C202.3 273.7 195 299 196.8 317.5zM158.2 300.6c0.1 4.7-0.9 4.6 0 8.5 7.1 6.3 19.2-0.5 23.5-5.6C180.8 293.7 163.8 296.7 158.2 300.6zM304 269.5c1 13.8 3 33.2 0 49.9 -7.3 4.4-16.1 1.2-17.9-5.6 -1.4-5.5 2.6-9.9 2.8-16 0.4-11.5-8.5-27.3 0.9-30.1C295.2 267.7 301.3 266.9 304 269.5zM334.2 268.6c14.6 0.7 24.5-3.1 34.8 1.9 16.7 8 15.4 38.5 0 47.1 -11.3-0.1-21.2 5.8-32 2.8 -5.8-1.6-9.4-7.6-14.1-10.4 -1.5-10.2-7.3-19.8-1.9-29.2C327.9 279.3 330.7 273.6 334.2 268.6zM343.6 308.1c21 10.8 23.5-34.6 2.8-28.2C336.2 283 335.2 303.8 343.6 308.1zM124.3 336.3c-3 8.4-14.7 4.1-23.5 3.8 -14.8-0.5-39 4.4-51.8-1.9 0.4-9 10.7-5.9 17.9-5.6C85.4 333.3 110.4 327.4 124.3 336.3zM451.8 257.3c16.6-6.7 15.3 16.2 4.7 16.9C449.6 274.7 439.9 262 451.8 257.3zM453.7 259.2c2.7-0.2 4.8 0.2 5.6 1.9 1.4 2.3-3 6.8 1.9 8.5C467.1 264 456.7 255.1 453.7 259.2zM459.3 270.5c-3.7 0.6-2.4-3.9-4.7-4.7 0.7 3.3-0.9 4.1-2.8 4.7 -0.6-3.5 1.2-9.4-0.9-11.3C443.8 264.7 452.7 276.3 459.3 270.5z"/></svg>