<?xml version="1.0" encoding="utf-8"?>
<svg version="1.2" baseProfile="tiny" id="Ebene_1" xmlns="http://www.w3.org/2000/svg" xmlns:xlink="http://www.w3.org/1999/xlink"
	 x="0px" y="0px" width="500px" height="500px" viewBox="0 0 500 600" xml:space="preserve">
<g>
	<path fill-rule="evenodd" fill="#000" d="M101.695,284.58c4.725-10.228-0.812-25.098,2.824-35.762
		c4.565-2.044,13.334-1.024,16.94,0.941c5.639,12.715,1.847,33.66,1.883,49.879c0.018,8.524,3.43,16.972-2.824,21.646
		c-30.121,2.83-28.732-25.853-44.233-37.645c-6.712,6.779-3.475,26.384-4.706,35.764c-4.55,3.362-16.356,2.558-18.822-1.881
		c-1.144-13.25-1.322-19.379,4.706-27.295c-6.29-10.812-5.385-23.708-4.706-40.468c3.989-1.189,12.93-2.704,16.94-2.825
		C82.773,257.073,89.496,273.566,101.695,284.58z"/>
	<path fill-rule="evenodd" fill="#000" d="M304.04,248.818c0.623,5.016-0.729,8.055-2.825,10.352
		c-5.865,0.221-11.656,0.365-14.116-2.822C283.183,244.441,299.448,243.543,304.04,248.818z"/>
	<path fill-rule="evenodd" fill="#000" d="M248.512,271.406c4.422-3.248,15.893-6.396,20.705-0.942
		c-4.332,23.532,12.123,63.472-13.176,71.526c-16.416-3.743-45.077,7.796-42.351-16c10.577-1.879,42.489,17.002,36.705-11.294
		c-8.746-1.175-9.769,4.436-15.999,4.707c-18.996,0.825-28.198-37.346-16-48.939C225.674,263.547,240.443,265.344,248.512,271.406z
		 M250.395,286.464c-7.601-18.015-29.266,2.731-15.999,17.882C250.073,310.025,253.547,293.936,250.395,286.464z"/>
	<path fill-rule="evenodd" fill="#000" d="M441.443,276.11c-7.364,13.7-25.814-7.984-31.998,4.706
		c6.782,11.207,33.941,5.271,36.704,19.764c1.067,5.599-2.506,9.756-4.706,15.058c-14.105,5.758-44.31,12.614-49.879-5.646
		c11.354-14.12,26.819,11.542,36.703-2.822c-6.794-15.653-38.419-2.861-36.703-25.411
		C393.006,262.812,432.037,259.036,441.443,276.11z"/>
	<path fill-rule="evenodd" fill="#000" d="M196.75,317.522c-5.583,3.1-16.167,3.728-19.764-0.942
		c-8.119,3.382-28.771,10.984-35.763,0.942c-7.251-10.418,0.107-29.765,15.058-23.53c5.573-7.134,27.865-2.035,23.528-16
		c-6.912-7.836-17.225,4.347-22.587,5.647c-20.995,5.091-18.802-14.677,0-16.94c8.372-1.007,16.494,1.854,26.352,0
		C202.293,273.653,194.957,298.96,196.75,317.522z M158.163,300.58c0.104,4.668-0.923,4.623,0,8.47
		c7.076,6.338,19.22-0.502,23.529-5.646C180.795,293.733,163.755,296.747,158.163,300.58z"/>
	<path fill-rule="evenodd" fill="#000" d="M304.04,269.522c0.996,13.751,3.018,33.2,0,49.881
		c-7.264,4.391-16.138,1.203-17.883-5.647c-1.398-5.486,2.596-9.911,2.823-16c0.43-11.491-8.464-27.264,0.941-30.115
		C295.152,267.742,301.336,266.893,304.04,269.522z"/>
	<path fill-rule="evenodd" fill="#000" d="M334.155,268.582c14.56,0.738,24.458-3.052,34.822,1.882
		c16.698,7.95,15.439,38.47,0,47.059c-11.281-0.112-21.164,5.816-32,2.821c-5.811-1.607-9.433-7.642-14.116-10.353
		c-1.526-10.171-7.327-19.787-1.883-29.175C327.896,279.262,330.69,273.588,334.155,268.582z M343.566,308.107
		c20.953,10.8,23.52-34.582,2.824-28.232C336.218,282.996,335.211,303.803,343.566,308.107z"/>
	<path fill-rule="evenodd" fill="#000" d="M124.283,336.343c-2.951,8.381-14.736,4.073-23.529,3.765
		c-14.776-0.516-38.98,4.426-51.762-1.882c0.365-9.047,10.7-5.942,17.882-5.646C85.432,333.342,110.359,327.367,124.283,336.343z"/>
	<path fill-rule="evenodd" fill="#000" d="M451.796,257.287c16.638-6.652,15.307,16.168,4.706,16.941
		C449.562,274.734,439.938,262.03,451.796,257.287z M453.679,259.17c2.705-0.194,4.781,0.239,5.646,1.884
		c1.432,2.271-3.028,6.776,1.884,8.469C467.134,263.984,456.722,255.068,453.679,259.17z M459.325,270.464
		c-3.686,0.55-2.403-3.871-4.706-4.706c0.741,3.25-0.879,4.141-2.823,4.706c-0.601-3.478,1.219-9.374-0.939-11.294
		C443.848,264.664,452.735,276.256,459.325,270.464z"/>
</g>
</svg>
