<svg xmlns="http://www.w3.org/2000/svg" xml:space="preserve" height="148.1" width="182.3" version="1.1" viewBox="0 0 182.7 150.7"><defs><clipPath clipPathUnits="userSpaceOnUse"><path d="m0 10h1366.9v1110.9h-1366.9z"/></clipPath></defs><g transform="matrix(1.3333 0 0 -1.3333 0 150.67)"><g transform="scale(.1)"><g clip-path="url(#clipPath20)"><path d="m1366.9 989.4c-50.3-22.3-104.3-37.4-161-44.2 57.9 34.7 102.3 89.7 123.3 155.2-54.2-32.1-114.2-55.5-178.1-68-51.1 54.5-124 88.6-204.7 88.6-154.9 0-280.4-125.5-280.4-280.4 0-22 2.5-43.4 7.3-63.9-233.1 11.7-439.7 123.4-578 293-24.1-41.4-38-89.6-38-141 0-97.3 49.5-183.1 124.8-233.4-46 1.4-89.2 14.1-127 35.1 0-1.2 0-2.3 0-3.5 0-135.9 96.7-249.2 225-275-23.5-6.4-48.3-9.8-73.9-9.8-18.1 0-35.6 1.7-52.8 5 35.7-111.4 139.3-192.5 262-194.8-96.1-75.2-217-120-348.4-120-22.6 0-45 1.3-66.9 3.9 124.2-79.6 271.6-126 429.9-126 515.8 0 797.9 427.3 797.9 797.9 0 12.2-0.3 24.2-0.8 36.3 54.8 39.6 102.3 89 139.9 145.2" fill="#55ACEE"/></g></g></g></svg>